<?xml version="1.0" encoding="utf-8"?>
<!-- Generator: Adobe Illustrator 27.8.1, SVG Export Plug-In . SVG Version: 6.00 Build 0)  -->
<svg version="1.1" id="Layer_1" xmlns="http://www.w3.org/2000/svg" xmlns:xlink="http://www.w3.org/1999/xlink" x="0px" y="0px"
	 viewBox="0 0 518 560" style="enable-background:new 0 0 518 560;" xml:space="preserve">
<path d="M259,484.4c10.4,0,19.3,3.7,26.7,11.1c7.3,7.4,11,16.3,11,26.8c0,10.3-3.7,19.1-11,26.5c-7.3,7.4-16.2,11.1-26.7,11.1
	c-10.3,0-19.1-3.7-26.4-11.1c-7.3-7.4-11-16.3-11-26.5c0-10.4,3.7-19.4,11-26.8C239.9,488.1,248.7,484.4,259,484.4z M71.3,327.3
	c13.1,0,25.1,3.2,35.8,9.6c10.7,6.4,19.2,15,25.6,25.6c6.4,10.7,9.6,22.6,9.6,35.8c0,13-3.2,24.8-9.6,35.6
	c-6.4,10.8-14.9,19.4-25.6,25.9c-10.7,6.5-22.6,9.7-35.8,9.7c-13.1,0-25.1-3.2-35.9-9.6c-10.8-6.4-19.4-15-25.8-25.8
	C3.2,423.4,0,411.4,0,398.3s3.2-25.1,9.6-35.8c6.4-10.7,15-19.2,25.8-25.6C46.2,330.5,58.1,327.3,71.3,327.3L71.3,327.3z
	 M447.2,327.3c13,0,24.8,3.2,35.6,9.6s19.3,15,25.6,25.6c6.3,10.7,9.5,22.6,9.5,35.8c0,13-3.2,24.8-9.5,35.6
	c-6.3,10.8-14.9,19.4-25.6,25.9s-22.7,9.7-35.6,9.7c-13.3,0-25.4-3.2-36.1-9.6c-10.8-6.4-19.3-15-25.6-25.8
	c-6.3-10.8-9.5-22.7-9.5-35.9s3.2-25.1,9.6-35.8s15-19.2,25.8-25.6C422.1,330.5,434.1,327.3,447.2,327.3L447.2,327.3z M259,252.7
	c10.4,0,19.3,3.6,26.7,10.9c7.3,7.2,11,16.1,11,26.5s-3.7,19.3-11,26.7c-7.3,7.3-16.2,11-26.7,11c-10.3,0-19.1-3.7-26.4-11
	c-7.3-7.3-11-16.2-11-26.7c0-10.3,3.7-19.1,11-26.4S248.7,252.7,259,252.7L259,252.7z M465.2,149.6c10.3,0,19.1,3.7,26.4,11
	s11,16.2,11,26.7c0,10.3-3.7,19.1-11,26.4c-7.3,7.3-16.1,11-26.4,11c-10.4,0-19.3-3.7-26.7-11c-7.3-7.3-11-16.1-11-26.4
	c0-10.4,3.7-19.3,11-26.7S454.7,149.6,465.2,149.6L465.2,149.6z M53.3,149.6c10.1,0,18.9,3.7,26.3,11s11.1,16.2,11.1,26.7
	c0,10.3-3.7,19.1-11.1,26.4c-7.4,7.3-16.2,11-26.3,11c-10.4,0-19.3-3.7-26.7-11c-7.3-7.3-11-16.1-11-26.4c0-10.3,3.7-19.1,11-26.5
	C34,153.3,42.9,149.6,53.3,149.6L53.3,149.6z M259,0c13.1,0,25.1,3.2,35.9,9.5s19.3,14.8,25.6,25.5c6.3,10.7,9.5,22.6,9.5,35.8
	s-3.2,25.1-9.5,35.9s-14.9,19.4-25.6,25.8S272.1,142,259,142c-13.1,0-25.1-3.2-35.9-9.6s-19.3-15-25.6-25.8
	c-6.3-10.8-9.5-22.7-9.5-35.9s3.2-25.1,9.6-35.8c6.4-10.7,15-19.2,25.8-25.5C234.1,3.2,246,0,259,0L259,0z"/>
</svg>
