<?xml version="1.0" encoding="UTF-8"?>
<svg width="1200pt" height="1200pt" version="1.1" viewBox="0 0 1200 1200" xmlns="http://www.w3.org/2000/svg" fill="currentColor">
 <path d="m28.801 529.2 394.8-394.8c37.199-37.199 98.398-37.199 136.8 0 19.199 19.199 28.801 43.199 28.801 68.398s-9.6016 49.199-28.801 68.398l-234 232.8h776.4c26.398 0 50.398 10.801 68.398 28.801s28.801 42 28.801 68.398c0 52.801-43.199 97.199-97.199 97.199h-774l231.6 231.6c19.199 19.199 28.801 43.199 28.801 68.398 0 25.199-9.6016 49.199-28.801 68.398-37.199 37.199-99.602 37.199-136.8 0l-394.8-396c-19.199-19.199-28.801-43.199-28.801-68.402v-2.3984-2.3984c0-25.203 9.6016-49.203 28.801-68.402z"/>
</svg>
