<?xml version="1.0" encoding="utf-8"?>
<!-- Generator: Adobe Illustrator 27.8.1, SVG Export Plug-In . SVG Version: 6.00 Build 0)  -->
<svg version="1.1" id="Layer_1" xmlns="http://www.w3.org/2000/svg" xmlns:xlink="http://www.w3.org/1999/xlink" x="0px" y="0px"
	 viewBox="0 0 607.2 607.2" style="enable-background:new 0 0 607.2 607.2;" xml:space="preserve">
<g>
	<path d="M579.2,551.2H56V28C56,12.5,43.5,0,28,0S0,12.5,0,28v551.2c0,15.5,12.5,28,28,28h551.2c15.5,0,28-12.5,28-28
		S594.7,551.2,579.2,551.2z"/>
	<path d="M86.6,443.6c-5.4,0-10.8-2.1-14.8-6.2c-8.2-8.2-8.2-21.5,0-29.7l119.9-119.9c8.2-8.2,21.5-8.2,29.7,0l66.5,66.5
		l254.2-254.2c8.2-8.2,21.5-8.2,29.7,0c8.2,8.2,8.2,21.5,0,29.7L302.7,399c-8.2,8.2-21.5,8.2-29.7,0l-66.5-66.5l-105,105
		C97.4,441.6,92,443.6,86.6,443.6L86.6,443.6z"/>
</g>
</svg>
