<?xml version="1.0" encoding="utf-8"?>
<!-- Generator: Adobe Illustrator 27.8.1, SVG Export Plug-In . SVG Version: 6.00 Build 0)  -->
<svg version="1.1" id="Layer_1" xmlns="http://www.w3.org/2000/svg" xmlns:xlink="http://www.w3.org/1999/xlink" x="0px" y="0px" fill="currentColor"
	 viewBox="0 0 323.2 651.1" style="enable-background:new 0 0 323.2 651.1;" xml:space="preserve">
<path d="M189.8,14.5l131,281.6c3.2,6.8,3.2,14.7,0,21.5c-3.2,6.8-9.3,11.8-16.6,13.6c-7.3,1.8-15,0.2-21.1-4.3L266,315
	c-4.8-3.5-10.7-5.2-16.6-4.8c-5.9,0.4-11.5,2.9-15.8,7c-4.3,4.1-6.9,9.6-7.6,15.6l-29.4,295.7c-0.6,6.2-3.5,12-8.1,16.2
	c-4.6,4.2-10.6,6.5-16.9,6.5c-6.1,0-12.1-2.3-16.6-6.3s-7.6-9.7-8.3-15.8L110,332.8c-0.8-5.9-3.6-11.4-8.1-15.4
	c-4.4-4-10.1-6.3-16.1-6.5c-6-0.2-11.8,1.8-16.5,5.5L40.9,339h0c-6,4.8-13.8,6.5-21.3,4.8c-7.5-1.7-13.7-6.7-17.1-13.6
	c-3.3-6.9-3.3-14.9-0.1-21.8L144.3,14.2C147.1,8.4,152,4,157.9,1.7c5.9-2.3,12.6-2.2,18.5,0.1C182.3,4.2,187.1,8.7,189.8,14.5
	L189.8,14.5z"/>
</svg>
