<?xml version="1.0" encoding="UTF-8"?>
<svg width="1200pt" height="1200pt" version="1.1" viewBox="0 0 1200 1200" xmlns="http://www.w3.org/2000/svg">
 <path d="m1082.1 509.81h-438.94c-18.312 0.15625-36.047-6.3945-49.863-18.414-13.816-12.02-22.758-28.68-25.137-46.836-1.8398-20.258 4.9062-40.355 18.598-55.398 13.688-15.043 33.062-23.652 53.402-23.727h206.62c29.004 0.36719 56.004-14.766 70.824-39.699 14.824-24.938 15.215-55.887 1.0312-81.188-14.184-25.305-40.789-41.121-69.793-41.488h-728.81c-29.004-0.36719-56.004 14.766-70.824 39.699-14.824 24.938-15.215 55.887-1.0312 81.188 14.184 25.305 40.789 41.121 69.793 41.488h203.06c29.004-0.33594 55.988 14.828 70.777 39.781 14.793 24.953 15.152 55.902 0.9375 81.188-14.211 25.289-40.836 41.07-69.84 41.406h-76.688c-29.004-0.33594-55.988 14.828-70.777 39.781-14.793 24.953-15.152 55.902-0.9375 81.188 14.211 25.289 40.836 41.07 69.84 41.406h318.19c18.312-0.15625 36.047 6.3945 49.863 18.414 13.816 12.02 22.758 28.68 25.137 46.836 1.8945 20.238-4.8047 40.34-18.465 55.391s-33.023 23.664-53.348 23.734h-406.69c-29.004-0.36719-56.004 14.766-70.824 39.699-14.824 24.938-15.215 55.887-1.0312 81.188 14.184 25.305 40.789 41.121 69.793 41.488h850.69c29.004 0.33594 55.988-14.828 70.777-39.781 14.793-24.953 15.152-55.902 0.9375-81.188-14.211-25.289-40.836-41.07-69.84-41.406h-124.12c-29.004 0.33594-55.988-14.828-70.777-39.781-14.793-24.953-15.152-55.902-0.9375-81.188 14.211-25.289 40.836-41.07 69.84-41.406h196.5c29.004 0.36719 56.004-14.766 70.824-39.699 14.824-24.938 15.215-55.887 1.0312-81.188-14.184-25.305-40.789-41.121-69.793-41.488z"/>
</svg>
