<?xml version="1.0" encoding="utf-8"?>
<!-- Generator: Adobe Illustrator 27.8.1, SVG Export Plug-In . SVG Version: 6.00 Build 0)  -->
<svg version="1.1" id="Layer_1" xmlns="http://www.w3.org/2000/svg" xmlns:xlink="http://www.w3.org/1999/xlink" x="0px" y="0px"
	 viewBox="0 0 607.2 607.2" style="enable-background:new 0 0 607.2 607.2;" xml:space="preserve">
<style type="text/css">
	.st0{stroke:currentColor;stroke-width:18;stroke-miterlimit:10;fill:currentColor;}
	.st1{stroke:currentColor;stroke-width:46;stroke-miterlimit:10;fill:currentColor;}
</style>
<g>
	<path class="st0" d="M570,542.9H65V37.1C65,22.1,53,10,38,10S11,22.1,11,37.1v532.9c0,15,12.1,27.1,27,27.1h532
		c15,0,27-12.1,27-27.1C597,554.9,584.9,542.9,570,542.9z"/>
	<path class="st1" d="M126.6,443.6c-4.9,0-9.7-2.1-13.4-6.2c-7.4-8.2-7.4-21.5,0-29.7l108.2-119.9c7.4-8.2,19.4-8.2,26.8,0l60,66.5
		l229.4-254.2c7.4-8.2,19.4-8.2,26.8,0c7.4,8.2,7.4,21.5,0,29.7L321.6,399c-7.4,8.2-19.4,8.2-26.8,0l-60-66.5l-94.8,105
		C136.3,441.6,131.4,443.6,126.6,443.6L126.6,443.6z"/>
</g>
</svg>
