<?xml version="1.0" encoding="utf-8"?>
<!-- Generator: Adobe Illustrator 27.8.1, SVG Export Plug-In . SVG Version: 6.00 Build 0)  -->
<svg version="1.1" id="Layer_1" xmlns="http://www.w3.org/2000/svg" xmlns:xlink="http://www.w3.org/1999/xlink" x="0px" y="0px" fill="currentColor"
	 viewBox="0 0 448.1 441" style="enable-background:new 0 0 448.1 441;" xml:space="preserve">
<g>
	<path d="M347.1,245H287c-10,0-19.2,5.3-24.2,14c-5,8.7-5,19.3,0,28c5,8.7,14.2,14,24.2,14h61.5c10.4-0.2,20.6,3.4,28.6,10.1
		c8,6.7,13.3,16.1,14.9,26.4c1.6,12.1-2.1,24.2-10.2,33.3c-8.1,9.1-19.7,14.3-31.8,14.2h-7c-10,0-19.2,5.3-24.2,14
		c-5,8.7-5,19.3,0,28c5,8.7,14.2,14,24.2,14h7c26.9,0,52.6-11,71.1-30.4c18.5-19.5,28.2-45.7,26.9-72.5
		c-1.8-25.5-13.2-49.3-31.9-66.6C397.3,254.2,372.6,244.7,347.1,245L347.1,245z"/>
	<path d="M84,308h54.7c7.1-0.2,14.1,2.3,19.5,7c5.4,4.7,8.9,11.1,9.8,18.2c0.8,7.9-1.8,15.8-7.1,21.6c-5.3,5.9-12.9,9.2-20.9,9.2
		c-10,0-19.2,5.3-24.2,14c-5,8.7-5,19.3,0,28c5,8.7,14.2,14,24.2,14c23.8,0.1,46.5-9.8,62.5-27.4c16-17.6,23.8-41.1,21.5-64.7
		c-2.4-21.1-12.6-40.6-28.6-54.6c-16-14-36.6-21.6-57.8-21.3H84c-10,0-19.2-5.3-24.2-14c-5-8.7-5-19.3,0-28c5-8.7,14.2-14,24.2-14
		h182c26.9,0,52.6-11,71.1-30.4c18.5-19.5,28.2-45.7,26.9-72.5c-1.8-25.5-13.2-49.3-31.9-66.6C313.3,9.2,288.6-0.3,263.1,0H252
		c-10,0-19.2,5.3-24.2,14c-5,8.7-5,19.3,0,28c5,8.7,14.2,14,24.2,14h12.5c10.4-0.2,20.6,3.4,28.6,10.1c8,6.7,13.3,16.1,14.9,26.4
		c1.6,12.1-2.1,24.2-10.2,33.3c-8.1,9.1-19.7,14.3-31.8,14.2H84c-30,0-57.7,16-72.7,42s-15,58,0,84S54,308,84,308L84,308z"/>
</g>
</svg>
