<?xml version="1.0" encoding="utf-8"?>
<!-- Generator: Adobe Illustrator 27.8.1, SVG Export Plug-In . SVG Version: 6.00 Build 0)  -->
<svg version="1.1" id="Layer_1" xmlns="http://www.w3.org/2000/svg" xmlns:xlink="http://www.w3.org/1999/xlink" x="0px" y="0px"
	 viewBox="0 0 1024.8 804" style="enable-background:new 0 0 1024.8 804;" xml:space="preserve">
<g>
	<path d="M954,645.6H363.6c-38.4,0-68.4,30-68.4,68.4s30,68.4,68.4,68.4H954c38.4,0,68.4-30,68.4-68.4
		C1024.8,675.6,992.4,645.6,954,645.6L954,645.6z"/>
	<path d="M180,714c0,49.7-40.3,90-90,90c-49.7,0-90-40.3-90-90s40.3-90,90-90C139.7,624,180,664.3,180,714"/>
	<path d="M1024.8,402c0-38.4-30-68.4-68.4-68.4H363.6c-38.4,0-68.4,30-68.4,68.4s30,68.4,68.4,68.4H954
		C992.4,470.4,1024.8,440.4,1024.8,402L1024.8,402z"/>
	<path d="M180,402c0,49.7-40.3,90-90,90c-49.7,0-90-40.3-90-90s40.3-90,90-90C139.7,312,180,352.3,180,402"/>
	<path d="M1024.8,90c0-38.4-30-68.4-68.4-68.4H363.6c-38.4,0-68.4,30-68.4,68.4s30,68.4,68.4,68.4H954
		C992.4,158.4,1024.8,128.4,1024.8,90L1024.8,90z"/>
	<path d="M180,90c0,49.7-40.3,90-90,90c-49.7,0-90-40.3-90-90S40.3,0,90,0C139.7,0,180,40.3,180,90"/>
</g>
</svg>
