<?xml version="1.0" encoding="UTF-8"?>
<svg width="1200pt" height="1200pt" version="1.1" viewBox="0 0 1200 1200" xmlns="http://www.w3.org/2000/svg" fill="currentColor">
 <path d="m1013.4 520.5c-26.988-5.3594-54.762-5.3594-81.75 0-3.625-60.039-27.207-117.15-67.004-162.25-39.793-45.105-93.52-75.617-152.64-86.691-59.121-11.074-120.25-2.0742-173.67 25.566s-96.074 72.344-121.18 127c-41.715-22.41-88.609-33.406-135.94-31.875-70.547 2.5391-137.3 32.59-185.97 83.715-48.672 51.129-75.402 119.28-74.473 189.86 0.92969 70.586 29.449 138 79.453 187.83 50.008 49.824 117.52 78.102 188.11 78.781h686.62c52.09 0.53125 102.48-18.508 141.21-53.355 38.723-34.844 62.957-82.953 67.906-134.81 4.9531-51.859-9.7422-103.68-41.176-145.23s-77.316-69.773-128.57-79.105z"/>
</svg>
