<?xml version="1.0" encoding="UTF-8"?>
<svg width="1200pt" height="1200pt" version="1.1" viewBox="0 0 1200 1200" xmlns="http://www.w3.org/2000/svg">
 <path d="m453.68 423.05c30.684 0 59.191 5.2578 85.531 15.773 26.336 10.516 49.859 25.391 70.57 44.625s38.098 42.188 52.16 68.859c36.562 0 69.293 7.8867 98.188 23.66 28.895 15.773 51.648 37.121 68.27 64.051 16.621 26.93 24.93 57.449 24.93 91.559 0 33.852-8.0547 64.438-24.164 91.75-16.109 27.312-38.035 48.922-65.777 64.82-26.203 15.016-55.312 22.941-87.328 23.777l-5.6797 0.074218h-398.88c-29.918 0-56.254-5.8359-79.008-17.504-22.758-11.668-40.527-28.02-53.312-49.047-12.785-21.031-19.176-45.395-19.176-73.094 0-32.059 9.2695-60.398 27.805-85.016 18.539-24.621 43.402-41.547 74.598-50.781 3.5781-40.52 16.172-76.875 37.777-109.06 21.605-32.188 49.285-57.641 83.035-76.363 33.75-18.723 70.57-28.082 110.46-28.082zm371.27-135.03c7.4141-0.25781 13.039 1.3477 16.875 4.8086 3.8359 3.4609 5.7539 8.1445 5.7539 14.043 0 5.6992-1.668 12.816-5 21.352l-1.3281 3.2656c-4.2188 10.004-8.4375 21.605-12.656 34.816-4.2188 13.207-6.3281 28.02-6.3281 44.434 0 26.93 5.9453 50.461 17.836 70.59 11.891 20.133 28.512 35.777 49.859 46.934 21.352 11.156 46.727 16.734 76.133 16.734 16.875 0 31.258-1.9219 43.148-5.7695 10.191-3.2969 19.113-6.5938 26.77-9.8906l3.7227-1.6484c8.4375-3.8477 15.727-5.7695 21.863-5.7695 5.8828 0 10.418 2.3086 13.617 6.9258 3.1953 4.6172 4.793 10.645 4.793 18.082 0 15.133-4.0898 31.609-12.273 49.434-8.1836 17.824-20.07 35.262-35.668 52.32-15.598 17.055-34.52 31.992-56.766 44.816-22.246 12.824-47.43 22.055-75.559 27.699-0.76562-27.953-6.7109-54.305-17.836-79.055-11.121-24.75-26.398-46.676-45.832-65.781-19.434-19.105-41.996-34.559-67.695-46.355-25.695-11.797-53.633-18.852-83.805-21.156-4.6016-10.004-9.6523-18.723-15.148-26.16s-11.188-13.848-17.066-19.234c5.1133-24.621 13.742-47.445 25.891-68.477 12.145-21.031 26.465-39.43 42.957-55.203s33.816-28.148 51.969-37.121c18.152-8.9766 35.414-13.848 51.777-14.617z"/>
</svg>
