<?xml version="1.0" encoding="UTF-8"?>
<svg width="1200pt" height="1200pt" version="1.1" viewBox="0 0 1200 1200" xmlns="http://www.w3.org/2000/svg">
 <g>
  <path d="m442.32 150h0.71875c19.32 0 35.039-15.602 35.039-35.039v-72.242c0-19.32-15.602-35.039-35.039-35.039h-0.71875c-19.32 0-35.039 15.602-35.039 35.039v72.238c0 19.324 15.719 35.043 35.039 35.043z"/>
  <path d="m743.04 441.36v0.71875c0 19.32 15.73 35.039 35.16 35.039l72.121 0.13281c19.453-0.13281 35.039-15.73 35.039-35.172v-0.60156c0-19.309-15.59-35.039-35.039-35.039l-72.121-0.12109c-19.438 0.003906-35.16 15.723-35.16 35.043z"/>
  <path d="m142.32 442.08v-0.60156c0-19.309-15.602-35.039-35.039-35.039l-72.121-0.12109c-19.441 0.003906-35.16 15.723-35.16 35.043v0.71875c0 19.32 15.719 35.039 35.16 35.039l72.121 0.13281c19.438-0.12891 35.039-15.73 35.039-35.172z"/>
  <path d="m647.65 239.65c13.789 13.68 35.867 13.68 49.668 0l51-51c13.703-13.801 13.801-35.879 0-49.691l-0.33594-0.48047c-13.703-13.68-35.879-13.68-49.703 0.12109l-51 50.879c-13.68 13.801-13.68 36 0 49.691z"/>
  <path d="m222.48 663.96c-13.68-13.691-35.879-13.691-49.559 0l-51.121 51c-13.68 13.691-13.68 36 0 49.559l0.48047 0.48047c13.68 13.691 35.879 13.801 49.68 0l51-51c13.68-13.691 13.68-35.879 0-49.691z"/>
  <path d="m178.92 233.52c13.801 13.691 35.879 13.801 49.68 0l0.48047-0.48047c13.68-13.559 13.68-35.746-0.12109-49.559l-50.879-51c-13.801-13.68-36-13.68-49.68-0.12109l-0.48047 0.60156c-13.68 13.691-13.68 35.762 0 49.559z"/>
  <path d="m965.65 723.48c-8.7461 0-17.41 0.48047-25.922 1.4414-52.57-64.801-132.83-106.32-222.83-106.32-146.88 0-267.96 110.4-284.76 252.84-67.922 20.039-117.48 82.68-117.48 157.08 0 90.48 73.32 163.79 163.8 163.79h487.22c129.44 0 234.32-105 234.32-234.35 0-129.48-104.88-234.48-234.35-234.48z"/>
  <path d="m458.28 625.31c39.359-36.254 86.16-64.309 137.76-81.48 31.309-10.559 69.359-39.48 73.691-72.254 1.2109-9.7188 1.9219-19.68 1.9219-29.867 0-126.36-102.49-228.84-228.97-228.84-126.36 0-228.84 102.48-228.84 228.84 0 97.078 60.359 180 145.56 213.24 30.836 12.133 74.637-7.1836 98.879-29.637z"/>
 </g>
</svg>
