<?xml version="1.0" encoding="UTF-8"?>
<svg width="1200pt" height="1200pt" version="1.1" viewBox="0 0 1200 1200" xmlns="http://www.w3.org/2000/svg">
 <path d="m1074.7 552.2c-0.058594 48.352-19.293 94.707-53.484 128.9-34.191 34.188-80.551 53.418-128.9 53.473h-539.61c-60.168-0.19922-117.8-24.242-160.28-66.855-42.477-42.617-66.324-100.33-66.324-160.5 0-60.168 23.848-117.88 66.324-160.5 42.473-42.617 100.11-66.656 160.28-66.855 3.0508 0 6.0781 0.074219 9.082 0.21875 28.777-54.801 74.09-99.141 129.5-126.73 55.406-27.586 118.1-37.012 179.17-26.945 61.07 10.066 117.42 39.117 161.04 83.027 43.625 43.914 72.305 100.45 81.973 161.59 44.387 5.2422 85.309 26.578 115.02 59.969 29.711 33.391 46.152 76.516 46.207 121.21zm-745.25 283.59c-16.359 23.707-54.422 82.25-54.422 114.21 0 26.793 14.293 51.555 37.5 64.953 23.207 13.395 51.793 13.395 75 0 23.207-13.398 37.5-38.16 37.5-64.953 0-31.957-38.062-90.5-54.43-114.21-4.9062-6.3945-12.508-10.145-20.57-10.145s-15.664 3.75-20.57 10.145zm250 100c-16.359 23.707-54.422 82.25-54.422 114.21 0 26.793 14.293 51.555 37.5 64.953 23.207 13.395 51.793 13.395 75 0 23.207-13.398 37.5-38.16 37.5-64.953 0-31.957-38.062-90.5-54.43-114.21-4.9062-6.3945-12.508-10.145-20.57-10.145s-15.664 3.75-20.57 10.145zm250-150c-16.359 23.707-54.422 82.25-54.422 114.21 0 26.793 14.293 51.555 37.5 64.953 23.207 13.395 51.793 13.395 75 0 23.207-13.398 37.5-38.16 37.5-64.953 0-31.957-38.062-90.5-54.43-114.21-4.9062-6.3945-12.508-10.145-20.57-10.145s-15.664 3.75-20.57 10.145z"/>
</svg>
