<?xml version="1.0" encoding="UTF-8"?>
<svg width="1200pt" height="1200pt" version="1.1" viewBox="0 0 1200 1200" xmlns="http://www.w3.org/2000/svg">
 <g fill-rule="evenodd">
  <path d="m187.13 532.89c42.25 41.508 100.18 67.113 164.09 67.113 129.32 0 234.15-104.83 234.15-234.14 0-20.586-2.6562-40.547-7.6445-59.566 53.25-70.355 139.26-116.05 236.3-116.05 161.64 0 292.68 126.77 292.68 283.16 0 27.992-4.1992 55.035-12.02 80.574 32.457 17.637 58.773 43.113 76.98 74.531 18.23 31.461 28.332 68.879 28.332 110.35 0 41.469-10.102 78.891-28.332 110.35-18.234 31.461-44.594 56.965-77.113 74.602-32.523 17.637-71.199 27.41-114.07 27.41h-731.71c-42.867 0-81.547-9.7734-114.07-27.41-32.52-17.637-58.883-43.141-77.113-74.602-18.23-31.461-28.332-68.883-28.332-110.35 0-41.473 10.102-78.891 28.332-110.35 18.23-31.461 44.594-56.965 77.113-74.605 10.258-5.5625 21.129-10.344 32.547-14.281-0.14453-0.97266 8.4336-3.1484 19.871-6.7305z"/>
  <path d="m303.39 1036.4c16.164 0 29.27 16.164 29.27 29.27v92.957c0 16.164-13.105 29.27-29.27 29.27-16.164 0-29.27-16.164-29.27-29.27v-92.957c0-16.164 13.105-29.27 29.27-29.27z"/>
  <path d="m596.08 1036.4c16.164 0 29.27 16.164 29.27 29.27v92.957c0 16.164-13.105 29.27-29.27 29.27s-29.27-16.164-29.27-29.27v-92.957c0-16.164 13.105-29.27 29.27-29.27z"/>
  <path d="m888.76 1036.4c16.164 0 29.27 16.164 29.27 29.27v92.957c0 16.164-13.105 29.27-29.27 29.27-16.164 0-29.27-16.164-29.27-29.27v-92.957c0-16.164 13.105-29.27 29.27-29.27z"/>
  <path d="m526.83 365.86c0 96.984-78.621 175.61-175.61 175.61-96.984 0-175.61-78.625-175.61-175.61 0-96.988 78.625-175.61 175.61-175.61 96.988 0 175.61 78.625 175.61 175.61"/>
  <path d="m252.45 38.027c15.613-4.1836 31.66 5.082 35.848 20.695l15.148 56.543c4.1836 15.613-5.082 31.66-20.695 35.844-15.613 4.1836-31.664-5.082-35.848-20.695l-15.148-56.543c-4.1836-15.613 5.082-31.66 20.695-35.844z"/>
  <path d="m471.83 57.223c14.648 6.8281 20.988 24.242 14.156 38.895l-24.738 53.051c-6.832 14.652-24.246 20.988-38.895 14.156-14.652-6.832-20.988-24.246-14.16-38.895l24.742-53.051c6.8281-14.652 24.242-20.988 38.895-14.156z"/>
  <path d="m15.043 377.06c-1.4102-16.102 10.504-30.301 26.605-31.707l58.316-5.1016c16.102-1.4102 30.297 10.504 31.707 26.605 1.4062 16.102-10.504 30.297-26.605 31.707l-58.316 5.1016c-16.102 1.4102-30.297-10.504-31.707-26.605z"/>
  <path d="m72.047 164.34c9.2695-13.242 27.52-16.461 40.762-7.1875l47.949 33.574c13.242 9.2734 16.461 27.523 7.1875 40.762-9.2695 13.242-27.52 16.461-40.762 7.1875l-47.949-33.574c-13.242-9.2695-16.461-27.52-7.1875-40.762z"/>
 </g>
</svg>
