<?xml version="1.0" encoding="utf-8"?>
<!-- Generator: Adobe Illustrator 27.8.1, SVG Export Plug-In . SVG Version: 6.00 Build 0)  -->
<svg version="1.1" id="Layer_1" xmlns="http://www.w3.org/2000/svg" xmlns:xlink="http://www.w3.org/1999/xlink" x="0px" y="0px"
	 viewBox="0 0 1200 1200" style="enable-background:new 0 0 1200 1200;" xml:space="preserve">
<g>
	<path d="M260.9,282.2c-69.2,0-135.5,27.5-184.5,76.4C27.5,407.5,0,473.9,0,543.1c0,69.2,27.5,135.6,76.4,184.5
		c48.9,48.9,115.3,76.4,184.5,76.4h697.7c54-0.1,106.3-18.4,148.7-51.7c42.4-33.4,72.4-80,85.2-132.4
		c12.8-52.4,7.7-107.6-14.5-156.8c-22.2-49.2-60.3-89.5-108.1-114.5c-15.2-84-57.7-160.6-121-217.9c-63.3-57.3-143.7-92-228.8-98.7
		c-85.1-6.7-170,14.9-241.5,61.5C407.2,140.2,353.1,209.1,325,289.7c-21.1-5.5-42.9-8.2-64.7-8.3L260.9,282.2z"/>
	<path d="M777.8,947.7c-5.1,10-4.6,21.9,1.4,31.4c6,9.5,16.6,15.1,27.8,14.8c11.2-0.3,21.4-6.5,26.9-16.4l47.7-89.5
		c4.1-9.8,3-21-2.9-29.9c-5.9-8.9-15.8-14.2-26.5-14.2c-10.6,0-20.6,5.3-26.5,14.2L777.8,947.7z"/>
	<path d="M589,890.6c1.1,1.8,2.4,3.5,4,4.9c5.9,6,14,9.3,22.4,9.4c8.7,0.4,17.1-2.8,23.4-8.9c6.3-6,9.8-14.3,9.7-23
		c0-8.7-3.6-17-9.9-22.9l-4.9-4c-1.7-1.1-3.5-2.1-5.4-2.9c-2-0.8-4-1.4-6-1.9c-9.4-1.9-19.2,0.6-26.6,6.8
		c-7.4,6.2-11.6,15.4-11.4,25c-0.2,2.1-0.2,4.1,0,6.2c0.4,2,1,4,1.7,5.9C586.7,887.2,587.7,889,589,890.6L589,890.6z"/>
	<path d="M1018.9,840.9c-9.4-1.9-19.2,0.6-26.6,6.8c-7.4,6.2-11.6,15.4-11.4,25c-0.2,2.1-0.2,4.1,0,6.2c0.4,2,1,4,1.8,5.9
		c0.7,1.9,1.8,3.8,3,5.4c1.1,1.8,2.4,3.5,4,4.9c5.9,6,14,9.3,22.4,9.4c8.4,0,16.5-3.3,22.5-9.3c6-6,9.3-14,9.3-22.5
		c0.2-2.1,0.2-4.2,0-6.4c-0.4-2-0.9-4-1.8-5.9c-0.8-1.9-1.8-3.8-3-5.4c-1.1-1.7-2.4-3.4-3.8-4.9h0l-4.9-4c-1.7-1.1-3.5-2.1-5.4-2.9
		c-2-0.8-4-1.4-6-1.9L1018.9,840.9z"/>
	<path d="M192.5,841.3c-9.4-1.9-19.2,0.6-26.6,6.8c-7.4,6.2-11.6,15.4-11.4,25c0.1,8.4,3.6,16.4,9.6,22.3s14.1,9.1,22.5,9.1
		c8.4-0.1,16.4-3.4,22.3-9.4c6-6,9.3-14.1,9.3-22.5s-3.4-16.5-9.3-22.5l-4.9-4c-1.7-1.1-3.5-2.1-5.4-2.9
		C196.5,842.5,194.5,841.8,192.5,841.3L192.5,841.3z"/>
	<path d="M301,947.7c-5.1,10-4.6,21.9,1.4,31.4c6,9.5,16.6,15.1,27.8,14.8c11.2-0.3,21.4-6.5,26.9-16.4h0l47.7-89.5
		c4.1-9.8,3-21-2.9-29.9c-5.9-8.9-15.8-14.2-26.5-14.2s-20.6,5.3-26.5,14.2l-47.7,89.5L301,947.7z"/>
	<path d="M491.7,1122.5c-5.1,10-4.6,21.9,1.4,31.4c6,9.5,16.6,15.1,27.8,14.8s21.4-6.5,26.9-16.4l47.7-89.5c4.1-9.8,3-21-2.9-29.9
		c-5.9-8.9-15.8-14.2-26.5-14.2c-10.6,0-20.6,5.3-26.5,14.2L491.7,1122.5z"/>
	<path d="M304.1,1073.1c-6.1-5.7-14.1-8.9-22.5-8.9c-8.4,0-16.4,3.2-22.5,8.9c-4.5,4.4-7.5,10.1-8.8,16.3
		c-1.2,6.2-0.6,12.6,1.8,18.4c1.6,3.9,4,7.4,7,10.3c6,6,14.1,9.3,22.5,9.3s16.5-3.4,22.5-9.3c2.9-3,5.2-6.5,6.8-10.3
		c1.6-3.8,2.4-7.9,2.4-12.1C313.4,1087.2,310.1,1079.1,304.1,1073.1L304.1,1073.1z"/>
	<path d="M732.8,1064.5c-9.4-1.9-19.2,0.6-26.6,6.8c-7.4,6.2-11.6,15.4-11.4,25c0,4.1,0.8,8.2,2.4,12.1c1.6,3.9,4,7.4,7,10.3
		c1.4,1.5,3,2.8,4.8,4c1.8,1.1,3.6,2.1,5.6,2.9c1.9,0.8,3.9,1.4,5.9,1.9c2.1,0.2,4.1,0.2,6.2,0c8.5,0,16.6-3.4,22.6-9.4
		c2.9-3,5.2-6.5,6.8-10.3c1.6-3.8,2.4-7.9,2.4-12.1c0.2-8.6-3.2-16.9-9.2-23h0l-4.9-4c-1.7-1.1-3.5-2.1-5.4-2.9c-2-0.8-4-1.4-6-1.9
		L732.8,1064.5z"/>
</g>
</svg>
