<?xml version="1.0" encoding="UTF-8"?>
<svg width="1200pt" height="1200pt" version="1.1" viewBox="0 0 1200 1200" xmlns="http://www.w3.org/2000/svg">
 <path d="m937.5 712.5h-637.5c-49.426-0.089844-97.824-14.133-139.62-40.516-41.801-26.379-75.301-64.027-96.648-108.61-21.348-44.578-29.68-94.277-24.027-143.38 5.6484-49.102 25.047-95.613 55.961-134.18 30.914-38.562 72.09-67.617 118.79-83.816 46.699-16.199 97.02-18.887 145.18-7.75 23.062-53.844 63.469-98.426 114.79-126.65 51.324-28.227 110.61-38.48 168.44-29.121 57.82 9.3555 110.85 37.781 150.65 80.754 39.801 42.977 64.086 98.027 68.992 156.39 41.348-14.777 86.117-17.133 128.79-6.7773 42.672 10.359 81.379 32.973 111.35 65.062 29.977 32.086 49.906 72.246 57.336 115.52 7.4297 43.277 2.0312 87.785-15.523 128.03-17.555 40.246-46.504 74.477-83.277 98.473-36.773 23.996-79.766 36.707-123.68 36.566zm-825 112.5c0-9.9453-3.9492-19.484-10.984-26.516-7.0312-7.0352-16.57-10.984-26.516-10.984s-19.484 3.9492-26.516 10.984c-7.0352 7.0312-10.984 16.57-10.984 26.516s3.9492 19.484 10.984 26.516c7.0312 7.0352 16.57 10.984 26.516 10.984s19.484-3.9492 26.516-10.984c7.0352-7.0312 10.984-16.57 10.984-26.516zm187.5 0c0-9.9453-3.9492-19.484-10.984-26.516-7.0312-7.0352-16.57-10.984-26.516-10.984s-19.484 3.9492-26.516 10.984c-7.0352 7.0312-10.984 16.57-10.984 26.516s3.9492 19.484 10.984 26.516c7.0312 7.0352 16.57 10.984 26.516 10.984s19.484-3.9492 26.516-10.984c7.0352-7.0312 10.984-16.57 10.984-26.516zm187.5 0c0-9.9453-3.9492-19.484-10.984-26.516-7.0312-7.0352-16.57-10.984-26.516-10.984s-19.484 3.9492-26.516 10.984c-7.0352 7.0312-10.984 16.57-10.984 26.516s3.9492 19.484 10.984 26.516c7.0312 7.0352 16.57 10.984 26.516 10.984s19.484-3.9492 26.516-10.984c7.0352-7.0312 10.984-16.57 10.984-26.516zm187.5 0c0-9.9453-3.9492-19.484-10.984-26.516-7.0312-7.0352-16.57-10.984-26.516-10.984s-19.484 3.9492-26.516 10.984c-7.0352 7.0312-10.984 16.57-10.984 26.516s3.9492 19.484 10.984 26.516c7.0312 7.0352 16.57 10.984 26.516 10.984s19.484-3.9492 26.516-10.984c7.0352-7.0312 10.984-16.57 10.984-26.516zm187.5 0c0-9.9453-3.9492-19.484-10.984-26.516-7.0312-7.0352-16.57-10.984-26.516-10.984s-19.484 3.9492-26.516 10.984c-7.0352 7.0312-10.984 16.57-10.984 26.516s3.9492 19.484 10.984 26.516c7.0312 7.0352 16.57 10.984 26.516 10.984s19.484-3.9492 26.516-10.984c7.0352-7.0312 10.984-16.57 10.984-26.516zm187.5 0c0-9.9453-3.9492-19.484-10.984-26.516-7.0312-7.0352-16.57-10.984-26.516-10.984s-19.484 3.9492-26.516 10.984c-7.0352 7.0312-10.984 16.57-10.984 26.516s3.9492 19.484 10.984 26.516c7.0312 7.0352 16.57 10.984 26.516 10.984s19.484-3.9492 26.516-10.984c7.0352-7.0312 10.984-16.57 10.984-26.516zm-862.5 150c0-9.9453-3.9492-19.484-10.984-26.516-7.0312-7.0352-16.57-10.984-26.516-10.984s-19.484 3.9492-26.516 10.984c-7.0352 7.0312-10.984 16.57-10.984 26.516s3.9492 19.484 10.984 26.516c7.0312 7.0352 16.57 10.984 26.516 10.984s19.484-3.9492 26.516-10.984c7.0352-7.0312 10.984-16.57 10.984-26.516zm187.5 0c0-9.9453-3.9492-19.484-10.984-26.516-7.0312-7.0352-16.57-10.984-26.516-10.984s-19.484 3.9492-26.516 10.984c-7.0352 7.0312-10.984 16.57-10.984 26.516s3.9492 19.484 10.984 26.516c7.0312 7.0352 16.57 10.984 26.516 10.984s19.484-3.9492 26.516-10.984c7.0352-7.0312 10.984-16.57 10.984-26.516zm187.5 0c0-9.9453-3.9492-19.484-10.984-26.516-7.0312-7.0352-16.57-10.984-26.516-10.984s-19.484 3.9492-26.516 10.984c-7.0352 7.0312-10.984 16.57-10.984 26.516s3.9492 19.484 10.984 26.516c7.0312 7.0352 16.57 10.984 26.516 10.984s19.484-3.9492 26.516-10.984c7.0352-7.0312 10.984-16.57 10.984-26.516zm187.5 0c0-9.9453-3.9492-19.484-10.984-26.516-7.0312-7.0352-16.57-10.984-26.516-10.984s-19.484 3.9492-26.516 10.984c-7.0352 7.0312-10.984 16.57-10.984 26.516s3.9492 19.484 10.984 26.516c7.0312 7.0352 16.57 10.984 26.516 10.984s19.484-3.9492 26.516-10.984c7.0352-7.0312 10.984-16.57 10.984-26.516zm187.5 0c0-9.9453-3.9492-19.484-10.984-26.516-7.0312-7.0352-16.57-10.984-26.516-10.984s-19.484 3.9492-26.516 10.984c-7.0352 7.0312-10.984 16.57-10.984 26.516s3.9492 19.484 10.984 26.516c7.0312 7.0352 16.57 10.984 26.516 10.984s19.484-3.9492 26.516-10.984c7.0352-7.0312 10.984-16.57 10.984-26.516zm-825 150c0-9.9453-3.9492-19.484-10.984-26.516-7.0312-7.0352-16.57-10.984-26.516-10.984s-19.484 3.9492-26.516 10.984c-7.0352 7.0312-10.984 16.57-10.984 26.516s3.9492 19.484 10.984 26.516c7.0312 7.0352 16.57 10.984 26.516 10.984s19.484-3.9492 26.516-10.984c7.0352-7.0312 10.984-16.57 10.984-26.516zm187.5 0c0-9.9453-3.9492-19.484-10.984-26.516-7.0312-7.0352-16.57-10.984-26.516-10.984s-19.484 3.9492-26.516 10.984c-7.0352 7.0312-10.984 16.57-10.984 26.516s3.9492 19.484 10.984 26.516c7.0312 7.0352 16.57 10.984 26.516 10.984s19.484-3.9492 26.516-10.984c7.0352-7.0312 10.984-16.57 10.984-26.516zm187.5 0c0-9.9453-3.9492-19.484-10.984-26.516-7.0312-7.0352-16.57-10.984-26.516-10.984s-19.484 3.9492-26.516 10.984c-7.0352 7.0312-10.984 16.57-10.984 26.516s3.9492 19.484 10.984 26.516c7.0312 7.0352 16.57 10.984 26.516 10.984s19.484-3.9492 26.516-10.984c7.0352-7.0312 10.984-16.57 10.984-26.516zm187.5 0c0-9.9453-3.9492-19.484-10.984-26.516-7.0312-7.0352-16.57-10.984-26.516-10.984s-19.484 3.9492-26.516 10.984c-7.0352 7.0312-10.984 16.57-10.984 26.516s3.9492 19.484 10.984 26.516c7.0312 7.0352 16.57 10.984 26.516 10.984s19.484-3.9492 26.516-10.984c7.0352-7.0312 10.984-16.57 10.984-26.516zm187.5 0c0-9.9453-3.9492-19.484-10.984-26.516-7.0312-7.0352-16.57-10.984-26.516-10.984s-19.484 3.9492-26.516 10.984c-7.0352 7.0312-10.984 16.57-10.984 26.516s3.9492 19.484 10.984 26.516c7.0312 7.0352 16.57 10.984 26.516 10.984s19.484-3.9492 26.516-10.984c7.0352-7.0312 10.984-16.57 10.984-26.516z"/>
</svg>
