<?xml version="1.0" encoding="UTF-8"?>
<svg width="1200pt" height="1200pt" version="1.1" viewBox="0 0 1200 1200" xmlns="http://www.w3.org/2000/svg" fill="currentColor">
 <g>
  <path d="m600 297.6c-166.8 0-302.4 135.6-302.4 302.4 0 166.8 135.6 302.4 302.4 302.4 166.8 0 302.4-135.6 302.4-302.4 0-166.8-135.6-302.4-302.4-302.4z"/>
  <path d="m600 235.2c21.602 0 39.602-18 39.602-39.602v-127.2c0-21.602-18-39.602-39.602-39.602s-39.602 18-39.602 39.602v127.2c0 22.801 18 39.602 39.602 39.602z"/>
  <path d="m286.8 342c7.1992 7.1992 18 12 27.602 12 9.6016 0 20.398-3.6016 27.602-12 15.602-15.602 15.602-39.602 0-55.199l-90-90c-15.602-15.602-39.602-15.602-55.199 0-15.602 15.602-15.602 39.602 0 55.199z"/>
  <path d="m235.2 600c0-21.602-18-39.602-39.602-39.602h-127.2c-21.602 0-39.602 18-39.602 39.602s18 39.602 39.602 39.602h127.2c22.801 0 39.602-18 39.602-39.602z"/>
  <path d="m286.8 858-90 90c-15.602 15.602-15.602 39.602 0 55.199 7.1992 7.1992 18 12 27.602 12 9.6016 0 20.398-3.6016 27.602-12l90-90c15.602-15.602 15.602-39.602 0-55.199-14.402-15.602-39.605-15.602-55.203 0z"/>
  <path d="m600 964.8c-21.602 0-39.602 18-39.602 39.602v127.2c0 21.602 18 39.602 39.602 39.602s39.602-18 39.602-39.602v-127.2c0-22.801-18-39.602-39.602-39.602z"/>
  <path d="m913.2 858c-15.602-15.602-39.602-15.602-55.199 0-15.602 15.602-15.602 39.602 0 55.199l90 90c7.1992 7.1992 18 12 27.602 12 9.6016 0 20.398-3.6016 27.602-12 15.602-15.602 15.602-39.602 0-55.199z"/>
  <path d="m1130.4 560.4h-127.2c-21.602 0-39.602 18-39.602 39.602s18 39.602 39.602 39.602h127.2c21.602 0 39.602-18 39.602-39.602s-18-39.602-39.602-39.602z"/>
  <path d="m885.6 354c9.6016 0 20.398-3.6016 27.602-12l90-90c15.602-15.602 15.602-39.602 0-55.199-15.602-15.602-39.602-15.602-55.199 0l-90 90c-15.602 15.602-15.602 39.602 0 55.199 7.1953 8.3984 16.797 12 27.598 12z"/>
 </g>
</svg>
