<?xml version="1.0" encoding="UTF-8"?>
<svg width="700pt" height="700pt" version="1.1" viewBox="0 0 700 700" xmlns="http://www.w3.org/2000/svg" fill="currentColor">
 <path d="m560.14 154.44h-126.22v-43.75h126.22zm0 45.574h-126.22v43.75h126.22zm0 89.324-126.22-0.003907v43.75h126.22zm-85.531 199.21c0.17578 39.227-13.41 77.273-38.387 107.52-24.977 30.246-59.77 50.781-98.32 58.031s-78.426 0.75781-112.69-18.348c-34.258-19.109-60.738-49.621-74.828-86.23s-14.898-77-2.2891-114.15c12.609-37.145 37.84-68.695 71.305-89.164v-214.01c0.88672-30.805 17.832-58.895 44.664-74.043 26.836-15.152 59.641-15.152 86.473 0 26.832 15.148 43.777 43.238 44.664 74.043v213.79c24.355 14.953 44.453 35.922 58.359 60.887s21.156 53.09 21.047 81.668zm-120.02 7.2891c0.019531-12.574-4.957-24.641-13.84-33.543-8.8789-8.9023-20.934-13.91-33.508-13.926-12.574-0.011719-24.637 4.9727-33.535 13.859-8.8984 8.8828-13.902 20.938-13.91 33.512-0.003906 12.574 4.9844 24.637 13.875 33.531s20.949 13.891 33.523 13.891c12.551-0.019531 24.582-5.0078 33.465-13.879 8.8828-8.8672 13.891-20.891 13.93-33.445z"/>
</svg>
