<?xml version="1.0" encoding="UTF-8"?>
<svg width="1200pt" height="1200pt" version="1.1" viewBox="0 0 1200 1200" xmlns="http://www.w3.org/2000/svg" fill="currentColor">
 <path d="m937.5 712.5h-637.5c-49.426-0.089844-97.824-14.133-139.62-40.516-41.801-26.379-75.301-64.027-96.648-108.61-21.348-44.578-29.68-94.277-24.027-143.38 5.6484-49.102 25.047-95.613 55.961-134.18 30.914-38.562 72.09-67.617 118.79-83.816 46.699-16.199 97.02-18.887 145.18-7.75 23.062-53.844 63.469-98.426 114.79-126.65 51.324-28.227 110.61-38.48 168.44-29.121 57.82 9.3555 110.85 37.781 150.65 80.754 39.801 42.977 64.086 98.027 68.992 156.39 41.348-14.777 86.117-17.133 128.79-6.7773 42.672 10.359 81.379 32.973 111.35 65.062 29.977 32.086 49.906 72.246 57.336 115.52 7.4297 43.277 2.0312 87.785-15.523 128.03-17.555 40.246-46.504 74.477-83.277 98.473-36.773 23.996-79.766 36.707-123.68 36.566zm-835.88 214.12 75-75c9.5117-9.5117 13.227-23.375 9.7461-36.371-3.4805-12.992-13.633-23.145-26.625-26.625-12.996-3.4805-26.859 0.23438-36.371 9.7461l-75 75c-7.0977 7.043-11.094 16.625-11.094 26.625s3.9961 19.582 11.094 26.625c7.043 7.0977 16.625 11.094 26.625 11.094s19.582-3.9961 26.625-11.094zm0 225 300-300c9.5117-9.5117 13.227-23.375 9.7461-36.371-3.4805-12.992-13.633-23.145-26.625-26.625-12.996-3.4805-26.859 0.23438-36.371 9.7461l-300 300c-7.0977 7.043-11.094 16.625-11.094 26.625s3.9961 19.582 11.094 26.625c7.043 7.0977 16.625 11.094 26.625 11.094s19.582-3.9961 26.625-11.094zm648.38 10.875c-9.9688 0.058594-19.547-3.8555-26.625-10.875-7.0977-7.043-11.094-16.625-11.094-26.625s3.9961-19.582 11.094-26.625l88.125-85.875c9.6523-8.2656 22.84-11.082 35.027-7.4766 12.188 3.6016 21.723 13.137 25.324 25.324 3.6055 12.188 0.78906 25.375-7.4766 35.027l-87.75 88.125c-7.3711 6.3398-16.918 9.5664-26.625 9zm193.88-193.88c-9.9688 0.058594-19.547-3.8555-26.625-10.875-7.0977-7.043-11.094-16.625-11.094-26.625s3.9961-19.582 11.094-26.625l106.12-106.12c9.5117-9.5117 23.375-13.227 36.371-9.7461 12.992 3.4805 23.145 13.633 26.625 26.625 3.4805 12.996-0.23438 26.859-9.7461 36.371l-106.12 106.12c-7.0781 7.0195-16.656 10.934-26.625 10.875zm-392.25 183 150-150c5.2031-5.2734 8.7266-11.969 10.129-19.246 1.4023-7.2734 0.61719-14.801-2.2539-21.629-2.8125-6.8477-7.5898-12.711-13.73-16.848-6.1406-4.1367-13.367-6.3672-20.77-6.4023h-134.62l86.25-85.875c9.5117-9.5117 13.227-23.375 9.7461-36.371-3.4805-12.992-13.633-23.145-26.625-26.625-12.996-3.4805-26.859 0.23438-36.371 9.7461l-150 150c-5.2031 5.2734-8.7266 11.969-10.129 19.246-1.4023 7.2734-0.61719 14.801 2.2539 21.629 2.8125 6.8477 7.5898 12.711 13.73 16.848 6.1406 4.1367 13.367 6.3672 20.77 6.4023h134.62l-86.25 85.875c-7.0977 7.043-11.094 16.625-11.094 26.625s3.9961 19.582 11.094 26.625c7.043 7.0977 16.625 11.094 26.625 11.094s19.582-3.9961 26.625-11.094zm-225 0 37.5-37.5c9.5117-9.5117 13.227-23.375 9.7461-36.371-3.4805-12.992-13.633-23.145-26.625-26.625-12.996-3.4805-26.859 0.23438-36.371 9.7461l-37.5 37.5c-7.0977 7.043-11.094 16.625-11.094 26.625s3.9961 19.582 11.094 26.625c7.043 7.0977 16.625 11.094 26.625 11.094s19.582-3.9961 26.625-11.094zm487.5-262.5 37.5-37.5c9.5117-9.5117 13.227-23.375 9.7461-36.371-3.4805-12.992-13.633-23.145-26.625-26.625-12.996-3.4805-26.859 0.23438-36.371 9.7461l-37.5 37.5c-7.0977 7.043-11.094 16.625-11.094 26.625s3.9961 19.582 11.094 26.625c7.043 7.0977 16.625 11.094 26.625 11.094s19.582-3.9961 26.625-11.094z"/>
</svg>
