<?xml version="1.0" encoding="utf-8"?>
<!-- Generator: Adobe Illustrator 27.8.1, SVG Export Plug-In . SVG Version: 6.00 Build 0)  -->
<svg version="1.1" id="Layer_1" xmlns="http://www.w3.org/2000/svg" xmlns:xlink="http://www.w3.org/1999/xlink" x="0px" y="0px" fill="currentColor"
	 viewBox="0 0 434 448" style="enable-background:new 0 0 434 448;" xml:space="preserve">
<style type="text/css">
	.st0{fill:none;}
	.st1{fill:none;stroke:#000000;stroke-width:56;stroke-miterlimit:10;}
</style>
<g>
	<path d="M329,385c-10,0-19.2,5.3-24.2,14s-5,19.3,0,28s14.2,14,24.2,14h49c14.9,0,29.1-5.9,39.6-16.4S434,399.9,434,385V63
		c0-14.9-5.9-29.1-16.4-39.6S392.9,7,378,7h-49c-10,0-19.2,5.3-24.2,14s-5,19.3,0,28S319,63,329,63h49v70h-49
		c-10,0-19.2,5.3-24.2,14s-5,19.3,0,28s14.2,14,24.2,14h49v70h-49c-10,0-19.2,5.3-24.2,14s-5,19.3,0,28s14.2,14,24.2,14h49v70H329z"
		/>
	<path d="M0,370v50c0,7.4,2.9,14.5,8.2,19.8C13.5,445,20.6,448,28,448s14.5-2.9,19.8-8.2C53,434.5,56,427.4,56,420v-44.6
		c21.2-3.9,41.4-12.3,59.2-24.6l31.8,31.6c5.2,5.3,12.4,8.2,19.8,8.2c7.4,0,14.6-3,19.8-8.2c5.3-5.3,8.2-12.4,8.2-19.8
		s-3-14.6-8.2-19.8L155,311.2c12.2-17.8,20.5-38,24.4-59.2H224c10,0,19.2-5.3,24.2-14s5-19.3,0-28S234,196,224,196h-44.6
		c-3.9-21.3-12.3-41.4-24.6-59.2l31.6-31.8c5.3-5.2,8.2-12.4,8.2-19.8s-3-14.6-8.2-19.8c-5.3-5.3-12.4-8.2-19.8-8.2
		c-7.4,0-14.6,3-19.8,8.2L115.2,97C97.4,84.7,77.2,76.4,56,72.6V28c0-7.4-2.9-14.5-8.2-19.8S35.4,0,28,0S13.5,2.9,8.2,8.2
		S0,20.6,0,28v50"/>
	<g>
		<line class="st0" x1="28" y1="72.7" x2="28" y2="374.9"/>
		<line class="st1" x1="28" y1="72.7" x2="28" y2="374.9"/>
	</g>
</g>
</svg>
