<?xml version="1.0" encoding="utf-8"?>
<!-- Generator: Adobe Illustrator 27.8.1, SVG Export Plug-In . SVG Version: 6.00 Build 0)  -->
<svg version="1.1" id="Layer_1" xmlns="http://www.w3.org/2000/svg" xmlns:xlink="http://www.w3.org/1999/xlink" x="0px" y="0px" fill="currentColor"
	 viewBox="0 0 434 448" style="enable-background:new 0 0 434 448;" xml:space="preserve">
<style type="text/css">
	.st0{fill:none;stroke:#000000;stroke-width:56;stroke-miterlimit:10;}
	.st1{stroke:#000000;stroke-width:90;stroke-miterlimit:10;}
</style>
<g>
	<path d="M329,385c-10,0-19.2,5.3-24.2,14c-5,8.7-5,19.3,0,28c5,8.7,14.2,14,24.2,14h49c14.9,0,29.1-5.9,39.6-16.4
		c10.5-10.5,16.4-24.7,16.4-39.6V63c0-14.9-5.9-29.1-16.4-39.6C407.1,12.9,392.9,7,378,7h-49c-10,0-19.2,5.3-24.2,14
		c-5,8.7-5,19.3,0,28c5,8.7,14.2,14,24.2,14h49v70h-49c-10,0-19.2,5.3-24.2,14c-5,8.7-5,19.3,0,28c5,8.7,14.2,14,24.2,14h49v70h-49
		c-10,0-19.2,5.3-24.2,14c-5,8.7-5,19.3,0,28c5,8.7,14.2,14,24.2,14h49v70L329,385z"/>
	<path d="M41.3,321.1c-9.9,1.5-19,6.1-26,13.2C5.5,343.6,0,356.5,0,370v50c0,7.4,2.9,14.5,8.2,19.8c5.3,5.2,12.4,8.2,19.8,8.2
		s14.5-2.9,19.8-8.2c5.2-5.3,8.2-12.4,8.2-19.8v-44.6c21.2-3.9,41.4-12.3,59.2-24.6l31.8,31.6c5.2,5.3,12.4,8.2,19.8,8.2
		c7.4,0,14.6-3,19.8-8.2c5.3-5.3,8.2-12.4,8.2-19.8c0-7.4-3-14.6-8.2-19.8l-31.6-31.6c12.2-17.8,20.5-38,24.4-59.2H224
		c10,0,19.2-5.3,24.2-14c5-8.7,5-19.3,0-28c-5-8.7-14.2-14-24.2-14h-44.6c-3.9-21.3-12.3-41.4-24.6-59.2l31.6-31.8
		c5.3-5.2,8.2-12.4,8.2-19.8c0-7.4-3-14.6-8.2-19.8c-5.3-5.3-12.4-8.2-19.8-8.2c-7.4,0-14.6,3-19.8,8.2l-31.6,31.6
		C97.4,84.7,77.2,76.4,56,72.6V28c0-7.4-2.9-14.5-8.2-19.8C42.5,2.9,35.4,0,28,0S13.5,2.9,8.2,8.2C2.9,13.5,0,20.6,0,28v50
		c0,13.5,5.5,26.5,15.3,35.8c7.1,7,16.2,11.6,26,13.2c31.6,4.3,59,23.7,73.7,52c14.7,28.3,14.7,61.9,0,90.2
		C100.3,297.4,72.9,316.8,41.3,321.1L41.3,321.1z"/>
	<g>
		<line x1="28" y1="72.7" x2="28" y2="374.9"/>
		<line class="st0" x1="28" y1="72.7" x2="28" y2="374.9"/>
	</g>
</g>
<line class="st1" x1="82" y1="123.4" x2="82" y2="325.1"/>
</svg>
