<?xml version="1.0" encoding="utf-8"?>
<!-- Generator: Adobe Illustrator 27.8.1, SVG Export Plug-In . SVG Version: 6.00 Build 0)  -->
<svg version="1.1" id="Layer_1" xmlns="http://www.w3.org/2000/svg" xmlns:xlink="http://www.w3.org/1999/xlink" x="0px" y="0px" fill="currentColor"
	 viewBox="0 0 600 540.6" style="enable-background:new 0 0 600 540.6;" xml:space="preserve">
<g>
	<path d="M34.4,125C15,125,0,141.6,0,160.9s15,34.4,34.4,34.4h176.6c19.3,0,35.9-15,35.9-34.4S230.3,125,210.9,125L34.4,125z"/>
	<path d="M34.4,345.3C15,345.3,0,360.4,0,379.7s15,35.9,34.4,35.9l270.3,0c19.3,0,34.4-16.6,34.4-35.9s-15-34.4-34.4-34.4
		L34.4,345.3z"/>
	<path d="M34.4,235.9C15,235.9,0,251,0,270.3c0,19.3,15,34.4,34.4,34.4l440.6,0c19.3,0,34.4-15,34.4-34.4s-15-34.4-34.4-34.4H34.4z"
		/>
	<path d="M498.4,110.9c-36,0-68.5,20.1-82.8,53.1c-7.7,17.7-0.5,39.2,17.2,46.9c17.7,7.7,39.2-1,46.9-18.8
		c3.2-7.4,10.6-12.5,18.8-12.5h4.7c14.8,0,26.6,13.1,26.6,28.1c0,15.3-13,28.1-28.1,28.1h-28.1c-19.3,0-34.4,15-34.4,34.4
		s15,34.4,34.4,34.4h28.1c53.8,0,98.4-43,98.4-96.9c0-53.5-43.3-96.9-96.9-96.9H498.4z"/>
	<path d="M203.1,0c-36,0-68.5,21.7-82.8,54.7c-7.7,17.7,1,39.2,18.7,46.9c17.7,7.7,37.6-1,45.3-18.8c3.2-7.4,10.6-12.5,18.8-12.5
		h4.7c14.8,0,26.6,13.1,26.6,28.1c0,15.3-11.5,26.6-26.6,26.6h-28.1c-19.3,0-35.9,16.6-35.9,35.9s16.6,34.4,35.9,34.4h28.1
		c53.8,0,96.9-43,96.9-96.9c0-53.5-43.3-98.4-96.9-98.4L203.1,0z"/>
	<path d="M271.9,345.3c-19.3,0-35.9,15-35.9,34.4s16.6,35.9,35.9,35.9H300c15.1,0,28.1,11.3,28.1,26.6c0,15-13.4,28.1-28.1,28.1
		h-3.1c-8.1,0-15.5-5.1-18.8-12.5c-7.7-17.7-29.1-26.4-46.9-18.8s-24.9,29.1-17.2,46.9c14.3,33,46.8,54.7,82.8,54.7h3.1
		c53.5,0,96.9-44.9,96.9-98.4c0-53.9-43-96.9-96.9-96.9H271.9z"/>
</g>
</svg>
